<?xml version="1.0" encoding="utf-8"?>
<!-- Generator: Adobe Illustrator 21.1.0, SVG Export Plug-In . SVG Version: 6.00 Build 0)  -->
<svg version="1.1" id="Capa_1" xmlns="http://www.w3.org/2000/svg" xmlns:xlink="http://www.w3.org/1999/xlink" x="0px" y="0px"
	 viewBox="0 0 452 592" style="enable-background:new 0 0 452 592;" xml:space="preserve">
<style type="text/css">
	.st0{fill:#010002;}
</style>
<g>
	<g>
		<circle class="st0" cx="226" cy="82.1" r="42.1"/>
		<path class="st0" d="M355.8,309.6c-11.9-133.3-75.4-159.8-75.4-159.8s-61.4-36.9-126,10.1c-41.9,38.1-51.6,96.3-58.2,152.5
			c-3.3,28.6,41.3,28.2,44.7,0c4-33.5,9.6-67.2,26.2-96l-0.1,32.4l-0.3,155.6V528c0,13.3,9.7,24,23.4,24s24.7-10.8,24.7-24V351.5
			h21.9c0,41.3,0,135.7,0,177.1c0,28.8,44.6,28.8,44.6,0c0-41.3,0-82.7,0-124l1.9-155.9c0-14.9,0-28.2,0-37.4
			c17.8,29.2,23.7,63.9,27.8,98.5C314.4,337.8,359.1,338.2,355.8,309.6z"/>
	</g>
</g>
</svg>
